<?xml version="1.0" encoding="utf-8"?>
<!-- Generator: Adobe Illustrator 22.0.0, SVG Export Plug-In . SVG Version: 6.00 Build 0)  -->
<svg version="1.1" id="Layer_1" xmlns="http://www.w3.org/2000/svg" xmlns:xlink="http://www.w3.org/1999/xlink" x="0px" y="0px"
	 viewBox="0 0 65 65" style="enable-background:new 0 0 65 65;" xml:space="preserve">
<g>
	<path d="M32.5,5.5c14.9,0,27,12.1,27,27s-12.1,27-27,27s-27-12.1-27-27S17.6,5.5,32.5,5.5 M32.5,1.9C15.7,1.9,1.9,15.7,1.9,32.5
		s13.8,30.6,30.6,30.6s30.6-13.8,30.6-30.6S49.3,1.9,32.5,1.9L32.5,1.9z M32.5,17.6L32.5,17.6 M34.4,19.5c0.5-0.5,0.8-1.2,0.8-1.9
		c0-0.7-0.3-1.4-0.8-1.9c-1-1-2.8-1-3.8,0c-0.5,0.5-0.8,1.2-0.8,1.9s0.3,1.4,0.8,1.9c0.5,0.5,1.2,0.8,1.9,0.8
		C33.2,20.3,33.9,20.1,34.4,19.5z M34.3,47.3V24.8c0-1-0.8-1.8-1.8-1.8s-1.8,0.8-1.8,1.8v22.5c0,1,0.8,1.8,1.8,1.8
		S34.3,48.3,34.3,47.3z"/>
</g>
</svg>
