<?xml version="1.0" encoding="utf-8"?>
<!-- Generator: Adobe Illustrator 22.0.0, SVG Export Plug-In . SVG Version: 6.00 Build 0)  -->
<svg version="1.1" id="Layer_1" xmlns="http://www.w3.org/2000/svg" xmlns:xlink="http://www.w3.org/1999/xlink" x="0px" y="0px"
	 viewBox="0 0 45 60.2" style="enable-background:new 0 0 45 60.2;" xml:space="preserve">
<path d="M22.6,44.7c-9.2,0-17.8,5.2-22,13.5C1,58.5,1.3,58.7,1.7,59c0.1,0.1,0.3,0.2,0.5,0.3C6,51.5,14,46.6,22.6,46.6
	c8.7,0,16.6,5,20.4,12.7c0.4-0.3,0.8-0.6,1.2-0.9c0.1-0.1,0.3-0.2,0.4-0.3C40.5,50,31.9,44.7,22.6,44.7z"/>
<path d="M22.6,1.5C12.5,1.5,4.3,9.7,4.3,19.8s8.2,18.3,18.3,18.3s18.3-8.2,18.3-18.3C40.9,9.8,32.7,1.5,22.6,1.5z M22.6,36.3
	c-9.1,0-16.4-7.4-16.4-16.4c0-9.1,7.4-16.4,16.4-16.4S39,10.9,39,19.9S31.7,36.3,22.6,36.3z"/>
<path d="M32.7,18.3H12.5c-0.5,0-1,0.4-1,1c0,6.1,4.9,11,11,11s11-4.9,11-11C33.6,18.7,33.2,18.3,32.7,18.3z M22.6,28.4
	c-4.7,0-8.6-3.6-9.1-8.2h18.1C31.2,24.8,27.3,28.4,22.6,28.4z"/>
</svg>
