<?xml version="1.0" encoding="utf-8"?>
<!-- Generator: Adobe Illustrator 22.0.0, SVG Export Plug-In . SVG Version: 6.00 Build 0)  -->
<svg version="1.1"
	 id="Layer_1" xmlns:cc="http://creativecommons.org/ns#" xmlns:dc="http://purl.org/dc/elements/1.1/" xmlns:inkscape="http://www.inkscape.org/namespaces/inkscape" xmlns:rdf="http://www.w3.org/1999/02/22-rdf-syntax-ns#" xmlns:sodipodi="http://sodipodi.sourceforge.net/DTD/sodipodi-0.dtd" xmlns:svg="http://www.w3.org/2000/svg"
	 xmlns="http://www.w3.org/2000/svg" xmlns:xlink="http://www.w3.org/1999/xlink" x="0px" y="0px" viewBox="0 0 75 79.9"
	 style="enable-background:new 0 0 75 79.9;" xml:space="preserve">
<style type="text/css">
	.st0{fill:none;}
</style>
<path class="st0" d="M12,46.8c0.6,0,1,0.4,1,1s-0.4,1-1,1H1l3.2,9H20v-6.9v-0.1v-8v-0.1V13.8h-30v4.5L0.3,46.8H12z M-2.2,22.8
	c0.1,0,0.1,0,0.2,0h14c0.6,0,1,0.4,1,1s-0.4,1-1,1H-2c-0.6,0.1-1-0.3-1.1-0.9C-3.2,23.3-2.8,22.9-2.2,22.8z M-3.1,35.9
	c-0.1-0.6,0.3-1,0.9-1.1c0.1,0,0.1,0,0.2,0h14c0.6,0,1,0.4,1,1s-0.4,1-1,1H-2C-2.6,36.9-3,36.5-3.1,35.9z"/>
<path class="st0" d="M-10,57.8H4.2l-3.2-9h-3c-0.6,0.1-1-0.3-1.1-0.9c-0.1-0.6,0.3-1,0.9-1.1c0.1,0,0.1,0,0.2,0h2.3L-10,18.3v18
	V57.8z"/>
<path class="st0" d="M71.9,49.8c-0.4-10.7-7.5-20-17.2-23.1c-0.2,0-0.4-0.1-0.5-0.3C53.9,26,54,25.3,54.4,25
	c2.8-2.2,4.6-5.3,4.6-9.2c0-6.6-5.4-12-12-12c-6.6,0-12,5.4-11.9,12.1c0,3.8,1.8,7,4.6,9.2c0.1,0.1,0.2,0.3,0.3,0.5
	c0.1,0.5-0.2,1-0.7,1.2c-8,2.4-14.8,8.6-17.3,16.2v6.8H71.9z"/>
<path d="M11.6,43.6h14c0.6,0,1-0.4,1-1s-0.4-1-1-1h-14c-0.1,0-0.1,0-0.2,0c-0.6,0.1-1,0.5-0.9,1.1C10.6,43.3,11,43.7,11.6,43.6z"/>
<path d="M11.6,65.6c-0.1,0-0.1,0-0.2,0c-0.6,0.1-1,0.5-0.9,1.1c0.1,0.6,0.5,1,1.1,0.9h3l-0.7-2H11.6z"/>
<path d="M26.6,66.6c0-0.6-0.4-1-1-1H13.9l0.7,2h11C26.2,67.6,26.6,67.2,26.6,66.6z"/>
<path d="M56.8,25.5c2.5-2.5,4.2-5.8,4.2-9.7c0-7.7-6.3-14-14-14s-14,6.3-14,14c0,3.9,1.7,7.2,4.3,9.7c-3.7,1.3-7.1,3.4-9.9,6
	c0.6,0.2,1.1,0.6,1.5,1.2c3-2.7,6.5-4.8,10.4-5.9c0.5-0.2,0.8-0.7,0.7-1.2c-0.1-0.2-0.2-0.4-0.3-0.5c-2.8-2.2-4.6-5.4-4.6-9.2
	C35,9.2,40.4,3.8,47,3.8c6.6,0,12,5.4,12,12c0,3.9-1.8,7-4.6,9.2c-0.4,0.3-0.5,1-0.2,1.4c0.1,0.2,0.3,0.3,0.5,0.3
	c9.7,3.1,16.8,12.4,17.2,23.1H35.5c0,0.7,0.1,1.3,0.1,2H73c0.6,0,1-0.4,1-1C74,39.4,66.9,29.4,56.8,25.5z"/>
<path d="M35.6,61.8v-4.9v-3.3v-22c0-0.6-0.4-1-1-1h-32c-0.6,0-1,0.4-1,1l2,5.5v-4.5h30v28.9v0.1v8v0.1v6.9H17.8l0.7,2h16.1
	c0.6,0,1-0.4,1-1v-5.9v-1.1v-2V61.8z"/>
<path d="M3.6,76.6V55.1v-18l-2-5.5v46c0,0.6,0.4,1,1,1h15.9l-0.7-2H3.6z"/>
<path d="M25.6,55.6c0.6,0,1-0.4,1-1s-0.4-1-1-1h-14c-0.1,0-0.1,0-0.2,0c-0.6,0.1-1,0.5-0.9,1.1c0.1,0.6,0.5,1,1.1,0.9H25.6z"/>
</svg>
