<?xml version="1.0" encoding="utf-8"?>
<!-- Generator: Adobe Illustrator 22.0.0, SVG Export Plug-In . SVG Version: 6.00 Build 0)  -->
<svg version="1.1"
	 id="Layer_1" xmlns:cc="http://creativecommons.org/ns#" xmlns:dc="http://purl.org/dc/elements/1.1/" xmlns:inkscape="http://www.inkscape.org/namespaces/inkscape" xmlns:rdf="http://www.w3.org/1999/02/22-rdf-syntax-ns#" xmlns:sodipodi="http://sodipodi.sourceforge.net/DTD/sodipodi-0.dtd" xmlns:svg="http://www.w3.org/2000/svg"
	 xmlns="http://www.w3.org/2000/svg" xmlns:xlink="http://www.w3.org/1999/xlink" x="0px" y="0px" viewBox="0 0 80 70"
	 style="enable-background:new 0 0 80 70;" xml:space="preserve">
<g transform="translate(0,-952.36218)">
	<path d="M39.9,953.4c-0.2,0-0.4,0.1-0.5,0.2l-38,30c-0.4,0.3-0.5,1-0.2,1.4s1,0.5,1.4,0.2L40,955.6l37.4,29.5
		c0.4,0.3,1.1,0.3,1.4-0.2c0.3-0.4,0.3-1.2-0.2-1.4l-38-30C40.4,953.4,40.1,953.4,39.9,953.4z M14,978.4l-2,1.6v34.3
		c0,0.6,0.4,1,1,1h19c0.6,0,1-0.4,1-1v-19h14v19c0,0.6,0.4,1,1,1h19c0.6,0,1-0.4,1-1V980l-2-1.6v34.9H49v-19c0-0.6-0.4-1-1-1H32
		c-0.6,0-1,0.4-1,1v19H14V978.4z"/>
</g>
</svg>
