<?xml version="1.0" encoding="utf-8"?>
<!-- Generator: Adobe Illustrator 22.0.0, SVG Export Plug-In . SVG Version: 6.00 Build 0)  -->
<svg version="1.1" id="Ebene_1" xmlns="http://www.w3.org/2000/svg" xmlns:xlink="http://www.w3.org/1999/xlink" x="0px" y="0px"
	 viewBox="0 0 269.3 237.4" style="enable-background:new 0 0 269.3 237.4;" xml:space="preserve">
<style type="text/css">
	.st0{fill:#F1F1F1;}
</style>
<g>
	<g>
		<circle class="st0" cx="134.4" cy="142.5" r="5.5"/>
	</g>
	<g>
		<path class="st0" d="M134.4,234c-0.9,0-1.9-0.3-2.6-1c-10-8.7-20.9-17-32.3-25.9c-38.9-30-79.2-61.1-91.9-107.1
			c-8.1-31.7,2-60.8,27-78C48,12.8,65.1,8,82.5,8.6c18.8,0.6,37.5,7.2,54.2,19.1l76,55c1.4,1,2,2.8,1.5,4.5s-2.1,2.8-3.8,2.8h-25v79
			c0,2.2-1.8,4-4,4h-93c-2.2,0-4-1.8-4-4V90h-25c-1.7,0-3.3-1.1-3.8-2.8c-0.5-1.6,0-3.4,1.4-4.5l61-45l4.7,6.4L71.6,82h16.8
			c2.2,0,4,1.8,4,4v79h85V86c0-2.2,1.8-4,4-4h16.6l-66-47.8c-30.1-21.5-66.6-23.7-93-5.5C16.9,43.9,8,69.8,15.3,98
			c12,43.3,51.2,73.6,89.1,102.8c10.6,8.2,20.6,15.9,30.1,23.9c9.3-7.9,19.1-15.5,29.5-23.6c37.8-29.3,76.9-59.7,89.7-103.3
			c8.4-28.8,0.7-57.8-19.5-73.9C213,7.2,183.2,7.3,152.3,24.5l-3.9-7c48-26.7,79.3-8.7,90.6,0.2c22.8,18.1,31.5,50.5,22.2,82.4
			c-13.5,46.1-53.6,77.3-92.4,107.4c-11.3,8.7-21.9,17-31.8,25.5C136.3,233.7,135.3,234,134.4,234z"/>
	</g>
</g>
<path class="st0" d="M111.2,120l5.8,7c5.1-2.9,11.1-4.5,17.4-4.5c6.4,0,12.4,1.7,17.6,4.6l5.9-7c-6.8-4.2-14.9-6.7-23.5-6.7
	C125.9,113.5,117.9,115.9,111.2,120z"/>
<path class="st0" d="M95.6,101.2l5.8,7c9.4-6.1,20.6-9.7,32.7-9.7c12.4,0,23.9,3.8,33.5,10.2l5.8-6.9c-11.2-7.8-24.7-12.3-39.3-12.3
	C119.8,89.5,106.6,93.8,95.6,101.2z"/>
</svg>
