<?xml version="1.0" encoding="utf-8"?>
<!-- Generator: Adobe Illustrator 22.0.0, SVG Export Plug-In . SVG Version: 6.00 Build 0)  -->
<svg version="1.1" id="Layer_1" xmlns="http://www.w3.org/2000/svg" xmlns:xlink="http://www.w3.org/1999/xlink" x="0px" y="0px"
	 viewBox="0 0 57.5 60" style="enable-background:new 0 0 57.5 60;" xml:space="preserve">
<style type="text/css">
	.st0{fill:none;stroke:#000000;stroke-width:2;}
</style>
<title>Gear 6.3</title>
<desc>Created with Sketch.</desc>
<g>
	<g>
		<path class="st0" d="M10,48.3c-1,0.5-2.2,0.2-2.8-0.8l-4.1-7.1c-0.6-1-0.2-2.2,0.7-2.8l2.8-1.7c0.9-0.6,1.7-1.9,1.7-3l0-5.2
			c0-1.1-0.8-2.5-1.7-3l-2.8-1.7c-0.9-0.6-1.3-1.8-0.7-2.8l4.1-7.1c0.6-1,1.8-1.3,2.8-0.8l2.9,1.6c1,0.5,2.5,0.5,3.5,0l4.5-2.6
			c1-0.5,1.7-1.9,1.8-3L22.7,5c0-1.1,0.9-2,2.1-2l8.1,0c1.1,0,2,0.9,2.1,2l0.1,3.3c0,1.1,0.8,2.4,1.8,3l4.5,2.6c1,0.6,2.5,0.6,3.5,0
			l2.9-1.6c1-0.5,2.2-0.2,2.8,0.8l4.1,7.1c0.6,1,0.2,2.2-0.7,2.8L51,24.7c-0.9,0.6-1.7,1.9-1.7,3l0,5.2c0,1.1,0.8,2.5,1.7,3l2.8,1.7
			c0.9,0.6,1.3,1.8,0.7,2.8l-4.1,7.1c-0.6,1-1.8,1.3-2.8,0.8l-2.9-1.6c-1-0.5-2.5-0.5-3.5,0l-4.5,2.6c-1,0.5-1.7,1.9-1.8,3L35,55.6
			c0,1.1-0.9,2-2.1,2l-8.1,0c-1.1,0-2-0.9-2.1-2l-0.1-3.3c0-1.1-0.8-2.4-1.8-3l-4.5-2.6c-1-0.6-2.5-0.6-3.5,0L10,48.3z M22.8,40.7
			c5.7,3.3,13.1,1.3,16.4-4.4c3.3-5.7,1.3-13.1-4.4-16.4c-5.7-3.3-13.1-1.3-16.4,4.4S17.1,37.4,22.8,40.7z"/>
	</g>
</g>
</svg>
