<?xml version="1.0" encoding="utf-8"?>
<!-- Generator: Adobe Illustrator 22.0.0, SVG Export Plug-In . SVG Version: 6.00 Build 0)  -->
<svg version="1.1" id="Layer_1" xmlns="http://www.w3.org/2000/svg" xmlns:xlink="http://www.w3.org/1999/xlink" x="0px" y="0px"
	 viewBox="0 0 60 60" style="enable-background:new 0 0 60 60;" xml:space="preserve">
<path d="M30,57.2c-15.1,0-27.4-12.3-27.4-27.4S14.9,2.4,30,2.4s27.4,12.3,27.4,27.4S45.1,57.2,30,57.2L30,57.2z M30,4.6
	C16.1,4.6,4.7,15.9,4.7,29.8S16.1,55.1,30,55.1s25.3-11.3,25.3-25.3S43.9,4.6,30,4.6L30,4.6z"/>
<path d="M42,34.9l-10.4-5.5c-0.1-0.4-0.3-0.6-0.5-0.8V9.5h-2.2v19.1c-0.4,0.3-0.6,0.7-0.6,1.3c0,0.9,0.7,1.6,1.6,1.6
	c0.2,0,0.4-0.1,0.6-0.1l10.4,5.5L42,34.9z"/>
</svg>
